<?xml version="1.0" encoding="UTF-8" standalone="no"?>
<!DOCTYPE svg PUBLIC "-//W3C//DTD SVG 1.1//EN" "http://www.w3.org/Graphics/SVG/1.1/DTD/svg11.dtd">
<svg width="100%" height="100%" viewBox="0 0 121 31" version="1.1" xmlns="http://www.w3.org/2000/svg" xmlns:xlink="http://www.w3.org/1999/xlink" xml:space="preserve" xmlns:serif="http://www.serif.com/" style="fill-rule:evenodd;clip-rule:evenodd;stroke-linejoin:round;stroke-miterlimit:2;">
    <g transform="matrix(1,0,0,1,-0.0029,0.0004)">
        <g>
            <path id="a" d="M101.09,30L101.715,30L101.715,27.107L101.726,27.107L102.765,30L103.306,30L104.345,27.107L104.356,27.107L104.356,30L104.981,30L104.981,26.251L104.067,26.251L103.059,29.186L103.048,29.186L102.014,26.251L101.09,26.251L101.09,30L101.09,30ZM97.631,26.818L98.817,26.818L98.817,30L99.473,30L99.473,26.818L100.665,26.818L100.665,26.251L97.631,26.251L97.631,26.818ZM90.003,30L120.003,0L101.947,0L71.948,30L90.004,30L90.003,30ZM85.702,13.065L49.385,13.065C38.317,13.065 36.38,13.652 31.639,18.393C27.205,22.826 20.003,30.001 20.003,30.001L35.735,30.001L39.488,26.247C41.956,23.78 43.228,23.524 48.409,23.524L75.243,23.524L85.701,13.065L85.702,13.065ZM31.155,16.253C27.881,19.343 20.756,26.263 16.916,30L0.003,30C0.003,30 13.555,16.487 21.088,9.072C28.849,1.685 32.717,-0 46.952,-0L98.768,-0L87.549,11.219L48.005,11.219C38.003,11.219 35.756,11.912 31.156,16.253L31.155,16.253Z" style="fill:rgb(225,6,0);"/>
        </g>
    </g>
</svg>
