<?xml version="1.0" encoding="UTF-8" standalone="no"?>
<!DOCTYPE svg PUBLIC "-//W3C//DTD SVG 1.1//EN" "http://www.w3.org/Graphics/SVG/1.1/DTD/svg11.dtd">
<svg width="100%" height="100%" viewBox="0 0 251 113" version="1.1" xmlns="http://www.w3.org/2000/svg" xmlns:xlink="http://www.w3.org/1999/xlink" xml:space="preserve" xmlns:serif="http://www.serif.com/" style="fill-rule:evenodd;clip-rule:evenodd;stroke-linejoin:round;stroke-miterlimit:2;">
    <g>
        <g transform="matrix(1,0,0,1,-9.4,-9.8)">
            <path d="M148.8,28.78L161,9.81L96.13,9.81C75.13,9.81 65.13,28.1 65.13,28.1L43.48,64.1L29.86,86C43,86 51.55,83.54 57.62,80.31C62.357,77.635 66.336,73.797 69.18,69.16L77.74,56.16L121.21,56.16C129.5,56.16 135.6,49.16 135.6,49.16L144.76,36.27L89.76,36.27L94.76,28.71L148.8,28.78ZM142.89,37.32L142.27,38.19L61.65,38.19L33.18,85L31.77,85L60.85,37.28L142.89,37.32ZM67,29.25L62.7,36.33L61.41,36.33C61.27,36.33 65.76,29 65.76,29C65.76,29 74.92,12 94.31,10.86L159.09,10.86L158.47,11.86L95.06,11.86C93.81,11.81 77.1,12.39 67,29.25ZM258.46,11.65C257.64,10.58 255.82,9.88 253.58,9.8L184.51,9.8C172.83,9.8 167.28,16.36 165.82,18.42C165.38,19.04 159.27,28.68 159.27,28.68L224.76,28.68L219.47,37.23L168.63,37.23C159.707,37.255 151.342,41.658 146.27,49C146.04,49.3 132.55,70.52 124.53,83.14L123.6,84.59L202.28,84.59C217.75,84.59 224.35,73.8 224.41,73.7L229.88,64.7L163.45,64.7L168.88,56.02L219.88,56.02C220.88,56.02 221.88,56.02 222.83,55.89C234.3,54.89 239.16,49.43 241.83,45.38C241.95,45.2 257.93,18.73 258.58,17.55C259.65,15.66 260,13.59 258.46,11.65ZM228.2,65.7L227.62,66.63L162.27,66.63L162.85,65.69L228.2,65.7ZM218.34,39.12L168.63,39.12C160.311,39.142 152.516,43.26 147.81,50.12C147.55,50.49 141.95,59.28 127.05,82.72L126.41,83.66L125.32,83.66C138.59,62.8 146.71,50.05 147,49.58C151.88,42.466 159.963,38.194 168.59,38.17L218.87,38.17L218.34,39.12ZM184.51,11.69C173.74,11.69 168.8,17.5 167.36,19.52C167.17,19.79 162.13,27.73 162.13,27.73L161,27.73C163.37,23.99 166.32,19.36 166.6,18.97C167.97,17.04 173.3,10.74 184.52,10.74L253.59,10.74C254.836,10.738 256.061,11.066 257.14,11.69L184.51,11.69ZM12.52,122C10.9,122 9.94,121.66 9.57,121C9.2,120.34 9.57,118.92 10.84,117.07C13.14,113.78 15.67,112.32 19.06,112.32L27.36,112.32L26.36,113.76L18.73,113.76C16.24,113.76 14.39,114.88 12.57,117.48C11.92,118.4 11.21,119.48 11.48,120.04C11.65,120.37 12.29,120.54 13.43,120.54L21.65,120.54L20.55,122L12.52,122Z" style="fill:white;fill-rule:nonzero;"/>
        </g>
        <path d="M26.38,112.15L29.2,108.07L19.79,108.07L16.96,112.15L15.04,112.15L21.85,102.42L23.78,102.42L20.84,106.61L30.25,106.61L33.19,102.42L35.13,102.42L28.31,112.15L26.38,112.15ZM159.21,112.15L162.03,108.07L152.62,108.07L149.79,112.15L147.87,112.15L154.68,102.42L156.61,102.42L153.68,106.61L163.09,106.61L166.02,102.42L167.96,102.42L161.15,112.15L159.21,112.15Z" style="fill:white;fill-rule:nonzero;"/>
        <g transform="matrix(1,0,0,1,-9.4,-9.8)">
            <path d="M55.32,122L55.78,119.36L47.57,119.36L44.29,122L41.9,122L51.6,114.13C52.87,112.871 54.581,112.153 56.37,112.13C56.905,112.095 57.428,112.305 57.79,112.7C58.159,113.179 58.292,113.802 58.15,114.39L57,122L55.32,122ZM56,117.89L56.57,114.48C56.654,114.221 56.628,113.94 56.5,113.7C56.321,113.546 56.085,113.473 55.85,113.5C54.902,113.584 54.014,113.998 53.34,114.67L49.34,117.89L56,117.89ZM73.92,122L79.19,114.5L70.5,119.92L69.21,119.92L67.49,114L61.93,122L60.05,122L66.87,112.27L67.87,112.27C68.43,112.27 68.81,112.65 68.99,113.39L70.41,118.23L79.17,112.8C79.757,112.4 80.463,112.213 81.17,112.27L82.6,112.27L75.78,122L73.92,122ZM80.2,122L87,112.22L95,112.22C96.42,112.22 97.39,112.59 97.83,113.29C98.181,113.984 98.127,114.817 97.69,115.46C96.63,117.52 94.69,118.53 91.78,118.53L84.4,118.53L82,122L80.2,122ZM92.2,117.24C93.707,117.229 95.127,116.519 96.04,115.32C96.328,114.973 96.39,114.489 96.2,114.08C96.04,113.77 95.59,113.61 94.88,113.61L87.88,113.61L85.34,117.24L92.2,117.24ZM182.34,122L189.15,112.27L197.15,112.27C198.57,112.27 199.54,112.64 199.97,113.34C200.331,114.031 200.281,114.867 199.84,115.51C198.77,117.57 196.84,118.58 193.93,118.58L186.57,118.58L184.17,122L182.34,122ZM194.34,117.24C195.847,117.229 197.267,116.519 198.18,115.32C198.464,114.972 198.53,114.492 198.35,114.08C198.18,113.77 197.73,113.61 197.02,113.61L190.02,113.61L187.48,117.24L194.34,117.24Z" style="fill:white;fill-rule:nonzero;"/>
        </g>
        <path d="M88.07,112.15L94.89,102.42L96.73,102.42L89.92,112.15L88.07,112.15ZM165.82,112.15L172.64,102.42L174.48,102.42L167.66,112.15L165.82,112.15Z" style="fill:white;fill-rule:nonzero;"/>
        <g transform="matrix(1,0,0,1,-9.4,-9.8)">
            <path d="M111,122.07C108.11,122.07 106.61,121.65 106.11,120.69C105.61,119.73 106.02,118.69 107.21,116.97C110.04,112.97 113.45,112.1 117.71,112.1C120.19,112.1 121.71,112.61 122.27,113.62C122.74,114.48 122.48,115.68 121.5,117.19C118.55,121.73 115.29,122.07 111,122.07M117,113.5C113.48,113.5 111.25,114.08 108.82,117.21C107.82,118.48 107.47,119.34 107.72,119.84C108.08,120.58 109.93,120.68 111.72,120.68C115.4,120.68 117.66,120.11 119.86,116.97C120.75,115.71 121.05,114.85 120.79,114.34C120.4,113.6 118.67,113.5 117.02,113.5M135.35,122C133.25,122 132.46,121 131.85,117.45C131.24,113.9 131.04,113.73 129.97,113.73L129.91,113.73L124.12,122L122.24,122L129.06,112.27L130.06,112.27C132.06,112.27 132.88,113.45 133.38,116.79C133.93,120.46 134.38,120.46 135.38,120.46L135.43,120.46L141.18,112.27L143.18,112.27L136.34,122L135.35,122ZM140.42,122L141.42,120.55L149.87,120.55C152.07,120.55 152.87,120.3 153.51,119.35C153.74,119.05 153.81,118.8 153.72,118.61C153.63,118.42 153.06,118.1 152.28,118.02L147.56,117.51C146.89,117.44 145.72,117.2 145.36,116.4C145.154,115.829 145.282,115.189 145.69,114.74C146.86,113.043 148.856,112.099 150.91,112.27L159.57,112.27L158.57,113.68L150.47,113.68C149.276,113.627 148.125,114.143 147.37,115.07C146.65,116.07 148.02,116.15 148.69,116.23L153.47,116.72C154.253,116.736 154.979,117.136 155.41,117.79C155.657,118.367 155.593,119.031 155.24,119.55C154.24,121.41 152.88,122 149.68,122L140.42,122ZM53.11,96.06C51.26,96.06 50.21,96.8 48.63,98.19L38.11,107.4L41.27,107.4L44.44,104.64L52.14,104.64L51.72,107.4L54.13,107.4L55.35,98.75C55.384,98.595 55.401,98.437 55.401,98.279C55.401,97.061 54.398,96.059 53.181,96.059C53.157,96.059 53.134,96.059 53.11,96.06M53,99L52.48,102.6L46.81,102.6L51,99C51.54,98.53 51.88,98.23 52.35,98.23C52.82,98.23 53.06,98.53 52.98,99" style="fill:white;fill-rule:nonzero;"/>
        </g>
        <path d="M30.81,86.43L23.54,97.6L26.35,97.6L33.63,86.43L30.81,86.43Z" style="fill:white;fill-rule:nonzero;"/>
        <g transform="matrix(1,0,0,1,-9.4,-9.8)">
            <path d="M184.1,96.06C182.25,96.06 181.2,96.8 179.62,98.19L169.1,107.4L172.26,107.4L175.43,104.64L183.13,104.64L182.71,107.4L185.12,107.4L186.34,98.75C186.374,98.595 186.391,98.437 186.391,98.279C186.391,97.061 185.388,96.059 184.171,96.059C184.147,96.059 184.124,96.059 184.1,96.06M184,99L183.48,102.6L177.8,102.6L182,99C182.54,98.53 182.88,98.23 183.36,98.23C183.84,98.23 184.06,98.53 183.98,99M208.58,97.45C208.03,96.56 206.84,96.22 204.97,96.22L198.32,96.22L196.9,98.43L205.44,98.43C205.62,98.43 206.19,98.43 206.27,98.84C206.351,99.163 206.207,99.502 205.92,99.67C205.23,100.12 197.74,101.92 195.74,102.53C194.243,103.067 192.993,104.135 192.23,105.53C191.34,106.89 191.05,107.35 191.05,107.35L203.54,107.35L205.01,105.12L195.63,105.12C195.85,104.84 196.11,104.66 197,104.39C198.86,103.84 202.87,102.79 203.36,102.67C207.76,101.52 208.17,100.55 208.49,100.07C209.032,99.273 209.067,98.231 208.58,97.4M158.18,102.78L162.4,96.22L159.59,96.22L155.33,102.78C153.28,105.88 155.09,107.4 158.5,107.4L166.57,107.4L167.99,105.18L159.33,105.18C157.05,105.18 156.98,104.6 158.18,102.78M153.5,96.23L149.72,102C147.97,104.7 146.28,105.31 143.03,105.31C139.78,105.31 139.03,104.7 140.79,102L144.58,96.19L141.86,96.19L138.08,102C135.44,106.06 137.4,107.59 142.28,107.59C148.06,107.59 149.91,106.06 152.55,102L156.33,96.19L153.5,96.23ZM135.3,96.23C134.524,96.29 133.786,96.59 133.19,97.09L125.79,102.79L124.69,97.09C124.63,96.67 124.55,96.23 123.69,96.23L121.62,96.23L114.35,107.4L117.35,107.4L122.72,99.15L123.87,105.09L126.07,105.09L133.87,99.09L128.48,107.36L131.48,107.36L138.75,96.19L135.3,96.23ZM97.21,98C96.03,96.19 93.34,96 90.86,96C87.24,96 84.86,96.93 82.86,98.81C81.639,99.93 80.779,101.389 80.39,103C80.219,103.932 80.456,104.894 81.04,105.64C82.1,107.02 84.3,107.72 87.36,107.72C92.36,107.72 95.73,105.9 97.3,102.18C97.976,100.862 97.942,99.288 97.21,98M95.26,100.87C95.21,101.01 95.16,101.14 95.11,101.25C94.29,103.25 92.66,105.46 87.27,105.46C86.6,105.463 85.932,105.413 85.27,105.31L85.1,105.31L84.64,105.21C82.64,104.69 82.92,103.21 83.07,102.77C83.372,101.926 83.845,101.153 84.46,100.5C85.55,99.42 87.17,98.23 90.99,98.23C91.658,98.223 92.326,98.253 92.99,98.32C93.654,98.387 95.99,98.59 95.35,100.9M112.45,102.82C113.84,102.36 115.26,102.02 116.12,100.02C117.69,96.39 113.49,96.21 113.49,96.21L104.55,96.21L97.32,107.39L100.32,107.39L102.79,103.54L109.13,103.54C110.99,103.54 109.99,105.05 109.99,105.05L108.45,107.38L111.37,107.38L112.75,105.27C113.81,103.63 112.48,102.82 112.48,102.82M111.04,101.32L104.21,101.32L106.21,98.38L112.52,98.38C112.52,98.38 114.23,98.38 113.79,99.77C113.28,101.35 111.06,101.32 111.06,101.32M72.33,98.51L80.08,98.51L81.58,96.23L72.92,96.23C69.04,96.23 67.3,96.76 64.82,100.58L60.43,107.4L63.36,107.4L65.87,103.54L76.41,103.54L77.77,101.47L67.22,101.47L67.42,101.16C68.91,98.86 69.75,98.51 72.33,98.51M28.41,98.51L36.16,98.51L37.66,96.23L29,96.23C25.12,96.23 23.38,96.76 20.9,100.58L16.51,107.4L19.44,107.4L21.94,103.54L32.49,103.54L33.85,101.47L23.3,101.47L23.5,101.16C24.98,98.86 25.83,98.51 28.41,98.51M204.77,114.82L204.06,114.82L205.46,112.18L203.91,112.18L204.22,111.59L208,111.59L207.69,112.18L206.22,112.18L204.77,114.82ZM211.77,114.82L211,114.82L212.29,112.39L210,114.1L209.64,114.1L209.12,112.54L207.9,114.82L207.17,114.82L208.88,111.59L209.6,111.59L210.13,113.31L212.51,111.59L213.51,111.59L211.77,114.82Z" style="fill:white;fill-rule:nonzero;"/>
        </g>
    </g>
</svg>
