<?xml version="1.0" encoding="UTF-8" standalone="no"?>
<!DOCTYPE svg PUBLIC "-//W3C//DTD SVG 1.1//EN" "http://www.w3.org/Graphics/SVG/1.1/DTD/svg11.dtd">
<svg width="100%" height="100%" viewBox="0 0 25 25" version="1.1" xmlns="http://www.w3.org/2000/svg" xmlns:xlink="http://www.w3.org/1999/xlink" xml:space="preserve" xmlns:serif="http://www.serif.com/" style="fill-rule:evenodd;clip-rule:evenodd;stroke-miterlimit:1.5;">
    <g transform="matrix(1,0,0,1,-75,0)">
        <g transform="matrix(1,0,0,1,-4925,-5587.5)">
            <g transform="matrix(0.5,0,0,0.5,4957.2,5312.5)">
                <g id="B-Grid">
                    <rect x="85.6" y="550" width="50" height="50" style="fill:rgb(0,114,39);"/>
                    <g transform="matrix(1.28374,0,0,1.49114,-6855.67,-503.796)">
                        <path d="M5422.65,716.071L5422.65,710.731L5441.35,710.731L5441.35,716.096" style="fill:none;stroke:white;stroke-width:2.87px;"/>
                    </g>
                    <g transform="matrix(1.28374,0,0,1.49114,-6855.67,-471.796)">
                        <path d="M5422.65,716.071L5422.65,710.731L5441.35,710.731L5441.35,716.096" style="fill:none;stroke:white;stroke-width:2.87px;"/>
                    </g>
                    <g transform="matrix(1.28374,0,0,1.49114,-6869.67,-487.796)">
                        <path d="M5422.65,716.071L5422.65,710.731L5441.35,710.731L5441.35,716.096" style="fill:none;stroke:white;stroke-width:2.87px;"/>
                    </g>
                </g>
            </g>
        </g>
    </g>
</svg>
