<?xml version="1.0" encoding="UTF-8" standalone="no"?>
<!DOCTYPE svg PUBLIC "-//W3C//DTD SVG 1.1//EN" "http://www.w3.org/Graphics/SVG/1.1/DTD/svg11.dtd">
<svg width="100%" height="100%" viewBox="0 0 25 25" version="1.1" xmlns="http://www.w3.org/2000/svg" xmlns:xlink="http://www.w3.org/1999/xlink" xml:space="preserve" xmlns:serif="http://www.serif.com/" style="fill-rule:evenodd;clip-rule:evenodd;stroke-linejoin:round;stroke-miterlimit:2;">
    <g transform="matrix(1,0,0,1,-100,0)">
        <g transform="matrix(1,0,0,1,-4925,-5587.5)">
            <g transform="matrix(0.5,0,0,0.5,4982.2,5312.5)">
                <g id="B-Finish">
                    <rect x="85.6" y="550" width="50" height="50" style="fill:rgb(0,126,178);"/>
                    <g transform="matrix(1.68799,0,0,1.68799,-9182.06,-648.22)">
                        <rect x="5496.28" y="719.329" width="3.555" height="3.555" style="fill:white;"/>
                    </g>
                    <g transform="matrix(1.68799,0,0,1.68799,-9176.06,-642.22)">
                        <rect x="5496.28" y="719.329" width="3.555" height="3.555" style="fill:white;"/>
                    </g>
                    <g transform="matrix(1.68799,0,0,1.68799,-9170.06,-648.22)">
                        <rect x="5496.28" y="719.329" width="3.555" height="3.555" style="fill:white;"/>
                    </g>
                    <g transform="matrix(1.68799,0,0,1.68799,-9164.06,-642.22)">
                        <rect x="5496.28" y="719.329" width="3.555" height="3.555" style="fill:white;"/>
                    </g>
                    <g transform="matrix(1.68799,0,0,1.68799,-9158.06,-648.22)">
                        <rect x="5496.28" y="719.329" width="3.555" height="3.555" style="fill:white;"/>
                    </g>
                    <g transform="matrix(1.68799,0,0,1.68799,-9182.06,-660.22)">
                        <rect x="5496.28" y="719.329" width="3.555" height="3.555" style="fill:white;"/>
                    </g>
                    <g transform="matrix(1.68799,0,0,1.68799,-9170.06,-660.22)">
                        <rect x="5496.28" y="719.329" width="3.555" height="3.555" style="fill:white;"/>
                    </g>
                    <g transform="matrix(1.68799,0,0,1.68799,-9158.06,-660.22)">
                        <rect x="5496.28" y="719.329" width="3.555" height="3.555" style="fill:white;"/>
                    </g>
                    <g transform="matrix(1.68799,0,0,1.68799,-9182.06,-636.22)">
                        <rect x="5496.28" y="719.329" width="3.555" height="3.555" style="fill:white;"/>
                    </g>
                    <g transform="matrix(1.68799,0,0,1.68799,-9176.06,-630.22)">
                        <rect x="5496.28" y="719.329" width="3.555" height="3.555" style="fill:white;"/>
                    </g>
                    <g transform="matrix(1.68799,0,0,1.68799,-9170.06,-636.22)">
                        <rect x="5496.28" y="719.329" width="3.555" height="3.555" style="fill:white;"/>
                    </g>
                    <g transform="matrix(1.68799,0,0,1.68799,-9164.06,-630.22)">
                        <rect x="5496.28" y="719.329" width="3.555" height="3.555" style="fill:white;"/>
                    </g>
                    <g transform="matrix(1.68799,0,0,1.68799,-9158.06,-636.22)">
                        <rect x="5496.28" y="719.329" width="3.555" height="3.555" style="fill:white;"/>
                    </g>
                    <g transform="matrix(1.68799,0,0,1.68799,-9182.06,-624.22)">
                        <rect x="5496.28" y="719.329" width="3.555" height="3.555" style="fill:white;"/>
                    </g>
                    <g transform="matrix(1.68799,0,0,1.68799,-9170.06,-624.22)">
                        <rect x="5496.28" y="719.329" width="3.555" height="3.555" style="fill:white;"/>
                    </g>
                    <g transform="matrix(1.68799,0,0,1.68799,-9158.06,-624.22)">
                        <rect x="5496.28" y="719.329" width="3.555" height="3.555" style="fill:white;"/>
                    </g>
                    <g transform="matrix(1.68799,0,0,1.68799,-9176.06,-654.22)">
                        <rect x="5496.28" y="719.329" width="3.555" height="3.555" style="fill:white;"/>
                    </g>
                    <g transform="matrix(1.68799,0,0,1.68799,-9188.06,-642.22)">
                        <rect x="5496.28" y="719.329" width="3.555" height="3.555" style="fill:white;"/>
                    </g>
                    <g transform="matrix(1.68799,0,0,1.68799,-9188.06,-630.22)">
                        <rect x="5496.28" y="719.329" width="3.555" height="3.555" style="fill:white;"/>
                    </g>
                    <g transform="matrix(1.68799,0,0,1.68799,-9188.06,-654.22)">
                        <rect x="5496.28" y="719.329" width="3.555" height="3.555" style="fill:white;"/>
                    </g>
                    <g transform="matrix(1.68799,0,0,1.68799,-9152.06,-642.22)">
                        <rect x="5496.28" y="719.329" width="3.555" height="3.555" style="fill:white;"/>
                    </g>
                    <g transform="matrix(1.68799,0,0,1.68799,-9152.06,-630.22)">
                        <rect x="5496.28" y="719.329" width="3.555" height="3.555" style="fill:white;"/>
                    </g>
                    <g transform="matrix(1.68799,0,0,1.68799,-9152.06,-654.22)">
                        <rect x="5496.28" y="719.329" width="3.555" height="3.555" style="fill:white;"/>
                    </g>
                    <g transform="matrix(1.68799,0,0,1.68799,-9164.06,-654.22)">
                        <rect x="5496.28" y="719.329" width="3.555" height="3.555" style="fill:white;"/>
                    </g>
                </g>
            </g>
        </g>
    </g>
</svg>
