<?xml version="1.0" encoding="UTF-8" standalone="no"?>
<!DOCTYPE svg PUBLIC "-//W3C//DTD SVG 1.1//EN" "http://www.w3.org/Graphics/SVG/1.1/DTD/svg11.dtd">
<svg width="100%" height="100%" viewBox="0 0 25 25" version="1.1" xmlns="http://www.w3.org/2000/svg" xmlns:xlink="http://www.w3.org/1999/xlink" xml:space="preserve" xmlns:serif="http://www.serif.com/" style="fill-rule:evenodd;clip-rule:evenodd;stroke-linejoin:round;stroke-miterlimit:2;">
    <g transform="matrix(1,0,0,1,-4925,-5587.5)">
        <g transform="matrix(0.5,0,0,0.5,4882.2,5312.5)">
            <g id="WIns">
                <rect x="85.6" y="550" width="50" height="50" style="fill:rgb(255,185,0);"/>
                <g transform="matrix(2,0,0,2,-10654.4,-860)">
                    <path d="M5376.51,709.69C5376.5,709.462 5376.5,709.232 5376.5,709L5388.5,709L5388.5,709.07C5388.5,709.278 5388.49,709.485 5388.49,709.69C5390.17,709.892 5391.09,710.725 5391.33,711.714C5391.49,712.417 5391.32,713.239 5390.77,714.05C5390.06,715.093 5388.69,716.141 5386.66,716.845C5385.93,718.124 5385.02,719.069 5384,719.543L5384,723L5386,723L5386,726L5379,726L5379,723L5381,723L5381,719.543C5379.98,719.069 5379.07,718.124 5378.34,716.845C5376.31,716.141 5374.94,715.093 5374.23,714.05C5373.68,713.239 5373.51,712.417 5373.67,711.714C5373.91,710.725 5374.83,709.892 5376.51,709.69ZM5376.57,710.687C5375.46,710.824 5374.81,711.275 5374.65,711.943C5374.54,712.411 5374.69,712.948 5375.06,713.488C5375.56,714.221 5376.44,714.939 5377.69,715.511C5377.12,714.122 5376.73,712.476 5376.57,710.687ZM5388.43,710.687C5388.28,712.476 5387.88,714.122 5387.31,715.511C5388.56,714.939 5389.44,714.221 5389.94,713.488C5390.31,712.948 5390.46,712.411 5390.35,711.943C5390.19,711.275 5389.54,710.824 5388.43,710.687Z" style="fill:white;"/>
                </g>
            </g>
        </g>
    </g>
</svg>
