<?xml version="1.0" encoding="UTF-8" standalone="no"?>
<!DOCTYPE svg PUBLIC "-//W3C//DTD SVG 1.1//EN" "http://www.w3.org/Graphics/SVG/1.1/DTD/svg11.dtd">
<svg width="100%" height="100%" viewBox="0 0 25 25" version="1.1" xmlns="http://www.w3.org/2000/svg" xmlns:xlink="http://www.w3.org/1999/xlink" xml:space="preserve" xmlns:serif="http://www.serif.com/" style="fill-rule:evenodd;clip-rule:evenodd;stroke-linejoin:round;stroke-miterlimit:2;">
    <g transform="matrix(1,0,0,1,-25,0)">
        <g transform="matrix(1,0,0,1,-4925,-5587.5)">
            <g transform="matrix(0.5,0,0,0.5,4907.2,5312.5)">
                <g id="FL">
                    <rect x="85.6" y="550" width="50" height="50" style="fill:rgb(178,54,255);"/>
                    <g transform="matrix(4.72946,0,0,1.89178,-25415.8,-785.316)">
                        <rect x="5396.26" y="707.936" width="2.114" height="2.114" style="fill:white;"/>
                    </g>
                    <g transform="matrix(2.67539,-2.67539,0.668847,0.668847,-14800,14539.2)">
                        <rect x="5396.26" y="707.936" width="2.114" height="2.114" style="fill:white;"/>
                    </g>
                    <g transform="matrix(1.33769,1.33769,-0.668847,0.668847,-6622.01,-7130.31)">
                        <rect x="5396.26" y="707.936" width="2.114" height="2.114" style="fill:white;"/>
                    </g>
                    <g transform="matrix(2,0,0,2,-10687.3,-860.252)">
                        <path d="M5398.93,710.835C5403.23,710.835 5406.72,714.326 5406.72,718.626C5406.72,722.926 5403.23,726.417 5398.93,726.417C5394.62,726.417 5391.13,722.926 5391.13,718.626C5391.13,714.326 5394.62,710.835 5398.93,710.835ZM5398.93,712.835C5402.12,712.835 5404.72,715.43 5404.72,718.626C5404.72,721.822 5402.12,724.417 5398.93,724.417C5395.73,724.417 5393.13,721.822 5393.13,718.626C5393.13,715.43 5395.73,712.835 5398.93,712.835Z" style="fill:white;"/>
                    </g>
                </g>
            </g>
        </g>
    </g>
</svg>
