<?xml version="1.0" encoding="UTF-8" standalone="no"?>
<!DOCTYPE svg PUBLIC "-//W3C//DTD SVG 1.1//EN" "http://www.w3.org/Graphics/SVG/1.1/DTD/svg11.dtd">
<svg width="100%" height="100%" viewBox="0 0 64 64" version="1.1" xmlns="http://www.w3.org/2000/svg" xmlns:xlink="http://www.w3.org/1999/xlink" xml:space="preserve" xmlns:serif="http://www.serif.com/" style="fill-rule:evenodd;clip-rule:evenodd;stroke-linejoin:round;stroke-miterlimit:2;">
    <g transform="matrix(1,0,0,1,-768,-576)">
        <g transform="matrix(1,0,0,1,0,96)">
            <g transform="matrix(2,0,0,2,64,288)">
                <rect x="352" y="96" width="32" height="32" style="fill:rgb(38,205,80);"/>
            </g>
            <g transform="matrix(1,0,0,1,0,-96)">
                <path d="M808.342,622C808.129,622.626 808,623.28 808,624L804,624L804,626.018L818,626.029L818,632L782,632L782,626L796,626.011L796,624L792,624C792,623.28 791.871,622.626 791.658,622L786,622L786,624L785,624L785,616L786,616L786,618L789.584,618C788.74,616.422 788,614.581 788,612L788,604L790,604C791.971,604 793.456,603.029 794.456,600.609L784,599L784,601L783,601L783,593L784,593L784,594L795.783,594C795.875,592.908 795.937,591.711 795.971,590.403L780,592L780,586L800,584L820,586L820,592L804.029,590.403C804.063,591.711 804.125,592.907 804.217,594L816,594L816,593L817,593L817,601L816,601L816,599L805.544,600.609C806.544,603.029 808.029,604 810,604L812,604L812,612C812,614.581 811.26,616.422 810.416,618L814,618L814,616L815,616L815,624L814,624L814,622L808.342,622ZM824,616L816,616L816,624L824,624L824,616ZM784,616L776,616L776,624L784,624L784,616ZM782,593L776,593L776,601L782,601L782,593ZM824,593L818,593L818,601L824,601L824,593ZM804.581,597L815,597L804.926,598.679C804.798,598.163 804.683,597.604 804.581,597ZM785,597L795.419,597C795.317,597.604 795.203,598.163 795.074,598.679L785,597Z" style="fill:rgb(255,255,253);"/>
            </g>
        </g>
    </g>
</svg>
