<?xml version="1.0" encoding="UTF-8" standalone="no"?>
<!DOCTYPE svg PUBLIC "-//W3C//DTD SVG 1.1//EN" "http://www.w3.org/Graphics/SVG/1.1/DTD/svg11.dtd">
<svg width="100%" height="100%" viewBox="0 0 851 525" version="1.1" xmlns="http://www.w3.org/2000/svg" xmlns:xlink="http://www.w3.org/1999/xlink" xml:space="preserve" xmlns:serif="http://www.serif.com/" style="fill-rule:evenodd;clip-rule:evenodd;stroke-linejoin:round;stroke-miterlimit:2;">
    <rect id="rect942" x="0" y="0" width="850.061" height="524.023" style="fill:white;"/>
    <g>
        <path d="M274.215,78.506L575.846,78.506L575.846,149.072C550.897,158.835 531.649,160.758 511.082,161.35C490.179,161.948 458.628,159.319 435.867,152.434C413.099,145.547 382.754,138.583 350.452,138.426C323.177,138.292 285.228,145.891 274.215,148.26L274.215,78.506ZM274.215,380.138L274.215,229.423L566.199,380.137L274.215,380.137L274.215,380.138ZM599.049,55.304L251.012,55.304L251.012,403.341L599.049,403.341L599.049,55.304Z" style="fill:rgb(0,154,73);fill-rule:nonzero;"/>
        <rect x="251.012" y="410.712" width="348.037" height="8.287" style="fill:rgb(243,40,55);"/>
        <g>
            <path d="M592.876,460.435C593.505,460.918 594.332,461.16 595.353,461.16C596.626,461.16 597.562,460.75 598.156,459.931C598.751,459.112 599.05,457.799 599.05,455.994L599.05,454.523L597.369,454.523C597.369,454.706 597.377,454.948 597.39,455.249C597.404,455.549 597.41,455.77 597.41,455.91C597.41,456.834 597.349,457.481 597.223,457.853C597.097,458.223 596.885,458.409 596.593,458.409C596.354,458.409 596.186,458.339 596.089,458.199C595.992,458.059 595.941,457.765 595.941,457.316L595.941,444.676C595.941,442.283 595.384,440.495 594.272,439.31C593.159,438.127 591.469,437.536 589.2,437.536C587.17,437.536 585.514,438.096 584.233,439.215C582.952,440.336 582.312,441.756 582.312,443.478C582.312,444.486 582.581,445.276 583.122,445.85C583.659,446.426 584.39,446.712 585.315,446.712C586.085,446.712 586.702,446.496 587.163,446.06C587.626,445.628 587.856,445.054 587.856,444.34C587.856,443.569 587.681,442.982 587.331,442.575C586.982,442.169 586.471,441.966 585.799,441.966C585.574,441.966 585.403,441.972 585.284,441.986C585.165,442.001 585.048,442.023 584.937,442.05C585.174,441.407 585.573,440.902 586.134,440.538C586.693,440.176 587.354,439.993 588.107,439.993C589.158,439.993 589.987,440.325 590.598,440.989C591.206,441.654 591.51,442.554 591.51,443.688C591.51,444.612 591.259,445.416 590.755,446.103C590.25,446.788 589.389,447.475 588.171,448.162C587.905,448.302 587.492,448.512 586.932,448.791C585.364,449.561 584.196,450.295 583.425,450.996C582.866,451.515 582.445,452.149 582.166,452.896C581.884,453.647 581.744,454.504 581.744,455.469C581.744,457.234 582.186,458.624 583.069,459.638C583.951,460.654 585.147,461.161 586.659,461.161C587.722,461.161 588.64,460.927 589.41,460.458C590.179,459.989 590.879,459.243 591.51,458.221C591.79,459.214 592.246,459.952 592.876,460.435M591.3,452.592C591.3,454.244 591.087,455.451 590.661,456.213C590.233,456.977 589.559,457.358 588.633,457.358C588.004,457.358 587.468,457.133 587.028,456.677C586.586,456.222 586.366,455.665 586.366,455.007C586.366,453.775 587.269,452.403 589.075,450.891C590.054,450.078 590.797,449.4 591.301,448.854L591.301,452.592L591.3,452.592ZM570.031,446.397C570.031,444.661 570.273,443.376 570.756,442.543C571.239,441.71 571.977,441.295 572.971,441.295C573.545,441.295 573.982,441.497 574.282,441.902C574.583,442.308 574.734,442.918 574.734,443.729L574.734,456.036C574.734,456.848 574.617,457.365 574.378,457.591C574.139,457.813 573.656,457.926 572.93,457.926L572.93,460.51L581.392,460.51L581.392,457.926C580.552,457.926 580.007,457.818 579.754,457.6C579.501,457.382 579.376,456.861 579.376,456.036L579.376,444.34C579.376,441.916 579.024,440.179 578.325,439.121C577.625,438.064 576.483,437.536 574.902,437.536C573.879,437.536 572.956,437.809 572.129,438.355C571.304,438.9 570.533,439.748 569.819,440.896L569.819,438.186L563.372,438.186L563.372,440.811C564.211,440.811 564.752,440.916 564.989,441.126C565.226,441.336 565.347,441.848 565.347,442.659L565.347,456.036C565.347,456.861 565.224,457.382 564.979,457.6C564.734,457.818 564.198,457.926 563.373,457.926L563.373,460.51L571.835,460.51L571.835,457.926C571.078,457.897 570.59,457.78 570.366,457.568C570.142,457.358 570.03,456.848 570.03,456.036L570.03,446.397L570.031,446.397ZM546.36,454.462C545.856,455.246 545.605,456.126 545.605,457.107C545.605,458.045 545.837,458.85 546.298,459.522C546.759,460.195 547.473,460.769 548.44,461.244C547.348,461.678 546.538,462.168 546.013,462.715C545.489,463.26 545.226,463.875 545.226,464.562C545.226,465.807 545.951,466.812 547.4,467.575C548.849,468.338 550.804,468.72 553.269,468.72C556.25,468.72 558.53,468.146 560.104,467C561.678,465.85 562.467,464.191 562.467,462.021C562.467,461.013 562.284,460.136 561.92,459.386C561.556,458.638 561.017,458.04 560.303,457.592C559.758,457.24 558.246,456.981 555.766,456.814C554.983,456.758 554.382,456.715 553.962,456.688C551.834,456.521 550.469,456.324 549.868,456.1C549.265,455.876 548.965,455.526 548.965,455.051C548.965,454.826 549.055,454.581 549.238,454.314C549.419,454.049 549.713,453.734 550.118,453.37C550.652,453.58 551.167,453.74 551.662,453.853C552.16,453.966 552.632,454.022 553.08,454.022C555.278,454.022 556.94,453.285 558.068,451.817C559.195,450.346 559.76,448.184 559.76,445.328C559.76,443.816 559.532,442.525 559.076,441.453C558.621,440.383 557.946,439.539 557.049,438.923C557.385,438.238 557.76,437.723 558.173,437.381C558.586,437.037 559.024,436.867 559.485,436.867C559.596,436.867 559.759,436.887 559.967,436.929C559.994,436.929 560.023,436.937 560.051,436.95C559.689,437.047 559.41,437.226 559.223,437.484C559.034,437.743 558.938,438.063 558.938,438.44C558.938,438.944 559.09,439.343 559.39,439.637C559.692,439.931 560.1,440.079 560.619,440.079C561.207,440.079 561.676,439.889 562.026,439.511C562.376,439.134 562.551,438.623 562.551,437.979C562.551,437.096 562.263,436.396 561.691,435.878C561.115,435.36 560.353,435.1 559.401,435.1C558.63,435.1 557.881,435.339 557.154,435.814C556.426,436.292 555.733,436.998 555.076,437.936C554.656,437.796 554.246,437.694 553.847,437.63C553.448,437.568 553.038,437.537 552.618,437.537C550.686,437.537 549.134,438.324 547.967,439.899C546.798,441.475 546.213,443.585 546.213,446.231C546.213,447.673 546.406,448.897 546.792,449.905C547.176,450.913 547.782,451.753 548.608,452.425C547.613,452.997 546.864,453.676 546.36,454.462M557.217,462.419C557.496,462.433 557.665,462.44 557.719,462.44C558.448,462.525 558.94,462.664 559.2,462.86C559.459,463.056 559.588,463.378 559.588,463.827C559.588,464.611 559.108,465.229 558.149,465.685C557.19,466.139 555.877,466.367 554.213,466.367C552.433,466.367 551.069,466.133 550.116,465.664C549.166,465.195 548.689,464.527 548.689,463.659C548.689,463.253 548.783,462.895 548.972,462.589C549.162,462.28 549.444,462.015 549.823,461.79C552.386,462.07 554.85,462.278 557.217,462.419M551.273,450.188C550.938,449.383 550.77,447.922 550.77,445.809C550.77,443.682 550.937,442.208 551.273,441.387C551.609,440.569 552.184,440.158 552.996,440.158C553.792,440.158 554.36,440.569 554.697,441.387C555.032,442.208 555.201,443.682 555.201,445.809C555.201,447.908 555.032,449.364 554.697,450.177C554.36,450.988 553.793,451.394 552.996,451.394C552.184,451.394 551.61,450.992 551.273,450.188M538.647,460.435C539.277,460.918 540.103,461.16 541.124,461.16C542.398,461.16 543.333,460.75 543.929,459.931C544.523,459.112 544.821,457.799 544.821,455.994L544.821,454.523L543.14,454.523C543.14,454.706 543.148,454.948 543.161,455.249C543.176,455.549 543.182,455.77 543.182,455.91C543.182,456.834 543.12,457.481 542.993,457.853C542.867,458.223 542.658,458.409 542.363,458.409C542.124,458.409 541.958,458.339 541.859,458.199C541.762,458.059 541.713,457.765 541.713,457.316L541.713,444.676C541.713,442.283 541.157,440.495 540.043,439.31C538.93,438.127 537.24,437.536 534.971,437.536C532.942,437.536 531.286,438.096 530.006,439.215C528.724,440.336 528.083,441.756 528.083,443.478C528.083,444.486 528.352,445.276 528.893,445.85C529.43,446.426 530.163,446.712 531.087,446.712C531.856,446.712 532.473,446.496 532.935,446.06C533.396,445.628 533.628,445.054 533.628,444.34C533.628,443.569 533.453,442.982 533.103,442.575C532.753,442.169 532.241,441.966 531.57,441.966C531.345,441.966 531.174,441.972 531.055,441.986C530.936,442.001 530.821,442.023 530.709,442.05C530.947,441.407 531.344,440.902 531.906,440.538C532.466,440.176 533.124,439.993 533.879,439.993C534.93,439.993 535.758,440.325 536.368,440.989C536.976,441.654 537.281,442.554 537.281,443.688C537.281,444.612 537.028,445.416 536.524,446.103C536.02,446.788 535.158,447.475 533.94,448.162C533.674,448.302 533.262,448.512 532.7,448.791C531.133,449.561 529.964,450.295 529.194,450.996C528.635,451.515 528.215,452.149 527.935,452.896C527.655,453.647 527.516,454.504 527.516,455.469C527.516,457.234 527.956,458.624 528.838,459.638C529.721,460.654 530.918,461.161 532.428,461.161C533.494,461.161 534.41,460.927 535.181,460.458C535.95,459.989 536.65,459.243 537.28,458.221C537.561,459.214 538.016,459.952 538.647,460.435M537.072,452.592C537.072,454.244 536.857,455.451 536.431,456.213C536.003,456.977 535.329,457.358 534.405,457.358C533.775,457.358 533.24,457.133 532.799,456.677C532.358,456.221 532.138,455.665 532.138,455.007C532.138,453.775 533.041,452.403 534.845,450.891C535.826,450.078 536.568,449.4 537.072,448.854L537.072,452.592ZM514.092,438.491C513.341,437.853 512.442,437.535 511.393,437.535C510.412,437.535 509.517,437.811 508.706,438.365C507.893,438.918 507.138,439.761 506.438,440.896L506.438,438.186L499.949,438.186L499.949,440.811C500.789,440.811 501.328,440.916 501.566,441.126C501.805,441.336 501.924,441.848 501.924,442.659L501.924,456.036C501.924,456.861 501.802,457.382 501.557,457.6C501.312,457.818 500.776,457.926 499.949,457.926L499.949,460.51L508.203,460.51L508.203,457.926C507.531,457.912 507.082,457.8 506.86,457.591C506.635,457.379 506.522,456.862 506.522,456.036L506.522,446.397C506.522,444.702 506.761,443.43 507.236,442.575C507.712,441.721 508.427,441.295 509.378,441.295C509.995,441.295 510.456,441.497 510.765,441.902C511.071,442.308 511.226,442.918 511.226,443.729L511.226,456.036C511.226,456.82 511.11,457.327 510.879,457.557C510.649,457.789 510.191,457.912 509.504,457.925L509.504,460.509L517.503,460.509L517.483,457.925C516.798,457.911 516.343,457.796 516.117,457.58C515.895,457.362 515.782,456.848 515.782,456.036L515.782,446.397C515.782,444.702 516.016,443.43 516.485,442.575C516.954,441.721 517.663,441.295 518.617,441.295C519.232,441.295 519.693,441.497 520.002,441.902C520.31,442.308 520.463,442.918 520.463,443.729L520.463,456.036C520.463,456.834 520.358,457.341 520.148,457.557C519.939,457.776 519.49,457.897 518.804,457.925L518.784,460.509L527.036,460.509L527.036,457.925C526.195,457.925 525.65,457.817 525.399,457.599C525.146,457.381 525.02,456.86 525.02,456.035L525.02,444.34C525.02,441.931 524.677,440.196 523.991,439.131C523.306,438.067 522.185,437.535 520.632,437.535C519.624,437.535 518.7,437.833 517.859,438.427C517.02,439.022 516.27,439.915 515.612,441.105C515.347,439.999 514.84,439.126 514.092,438.491M498.586,458.586C499.65,456.872 500.182,453.788 500.182,449.336C500.182,444.884 499.648,441.805 498.576,440.095C497.506,438.388 495.66,437.534 493.043,437.534C490.452,437.534 488.623,438.388 487.551,440.095C486.481,441.805 485.945,444.884 485.945,449.336C485.945,453.817 486.476,456.906 487.541,458.607C488.605,460.309 490.44,461.159 493.044,461.159C495.674,461.159 497.522,460.301 498.586,458.586M491.299,456.707C490.976,455.754 490.816,453.298 490.816,449.336C490.816,445.388 490.976,442.938 491.299,441.985C491.62,441.035 492.216,440.558 493.083,440.558C493.922,440.558 494.501,441.034 494.816,441.985C495.131,442.938 495.288,445.388 495.288,449.336C495.288,453.298 495.134,455.754 494.827,456.707C494.519,457.66 493.938,458.135 493.084,458.135C492.216,458.136 491.621,457.661 491.299,456.707M471.051,430.582L472.601,430.582C474.363,430.582 475.564,430.981 476.205,431.78C476.846,432.582 477.166,434.014 477.166,436.078C477.166,438.109 476.81,439.56 476.096,440.434C475.383,441.305 474.19,441.74 472.515,441.74L471.052,441.74L471.052,430.582L471.051,430.582ZM471.051,445.317C471.167,445.302 471.284,445.288 471.401,445.281C471.515,445.273 471.684,445.269 471.902,445.269C473.315,445.269 474.32,445.653 474.917,446.421C475.514,447.19 475.847,448.572 475.92,450.573C475.934,451.037 475.951,451.716 475.964,452.612C476.022,455.749 476.351,457.909 476.948,459.094C477.341,459.861 477.846,460.42 478.465,460.773C479.085,461.125 479.875,461.301 480.836,461.301C482.422,461.301 483.572,460.78 484.286,459.74C485,458.7 485.358,457.004 485.358,454.652L485.358,453.238L483.566,453.238L483.566,455.54C483.566,456.132 483.462,456.609 483.26,456.968C483.056,457.329 482.786,457.509 482.451,457.509C481.781,457.509 481.373,456.238 481.228,453.693C481.199,453.102 481.176,452.661 481.163,452.371C480.974,449.541 480.552,447.572 479.896,446.468C479.24,445.366 478.157,444.636 476.642,444.285C478.477,443.965 479.888,443.081 480.879,441.633C481.869,440.186 482.362,438.286 482.362,435.932C482.362,432.989 481.599,430.815 480.07,429.406C478.541,427.997 476.175,427.293 472.972,427.293L463.363,427.293L463.363,430.582C464.193,430.582 464.779,430.759 465.122,431.109C465.463,431.461 465.635,432.085 465.635,432.982L465.635,454.797C465.635,455.692 465.463,456.321 465.122,456.682C464.779,457.04 464.193,457.221 463.363,457.221L463.363,460.51L473.496,460.51L473.496,457.221L473.321,457.221C472.478,457.221 471.887,457.04 471.553,456.682C471.218,456.321 471.051,455.692 471.051,454.797L471.051,445.317ZM463.612,447.216L456.957,447.216L456.957,450.954L463.612,450.954L463.612,447.216ZM450.796,460.435C451.425,460.918 452.252,461.16 453.273,461.16C454.546,461.16 455.482,460.75 456.078,459.931C456.672,459.112 456.97,457.799 456.97,455.994L456.97,454.523L455.289,454.523C455.289,454.706 455.297,454.948 455.31,455.249C455.324,455.549 455.33,455.77 455.33,455.91C455.33,456.834 455.267,457.481 455.141,457.853C455.016,458.223 454.806,458.409 454.512,458.409C454.273,458.409 454.105,458.339 454.008,458.199C453.911,458.059 453.862,457.765 453.862,457.316L453.862,444.676C453.862,442.283 453.305,440.495 452.192,439.31C451.079,438.127 449.389,437.536 447.12,437.536C445.091,437.536 443.434,438.096 442.155,439.215C440.873,440.336 440.232,441.756 440.232,443.478C440.232,444.486 440.501,445.276 441.04,445.85C441.579,446.426 442.311,446.712 443.234,446.712C444.004,446.712 444.619,446.496 445.084,446.06C445.545,445.628 445.775,445.054 445.775,444.34C445.775,443.569 445.601,442.982 445.25,442.575C444.901,442.169 444.39,441.966 443.718,441.966C443.493,441.966 443.322,441.972 443.203,441.986C443.084,442.001 442.969,442.023 442.856,442.05C443.093,441.407 443.492,440.902 444.054,440.538C444.613,440.176 445.272,439.993 446.027,439.993C447.076,439.993 447.906,440.325 448.515,440.989C449.124,441.654 449.43,442.554 449.43,443.688C449.43,444.612 449.177,445.416 448.673,446.103C448.169,446.788 447.307,447.475 446.089,448.162C445.823,448.302 445.41,448.512 444.85,448.791C443.283,449.561 442.114,450.295 441.343,450.996C440.783,451.515 440.364,452.149 440.084,452.896C439.802,453.647 439.664,454.504 439.664,455.469C439.664,457.234 440.106,458.624 440.987,459.638C441.869,460.654 443.067,461.161 444.577,461.161C445.641,461.161 446.558,460.927 447.328,460.458C448.097,459.989 448.799,459.243 449.429,458.221C449.711,459.214 450.166,459.952 450.796,460.435M449.22,452.592C449.22,454.244 449.007,455.451 448.579,456.213C448.153,456.977 447.477,457.358 446.552,457.358C445.923,457.358 445.387,457.133 444.946,456.677C444.506,456.222 444.285,455.665 444.285,455.007C444.285,453.775 445.188,452.403 446.994,450.891C447.975,450.078 448.718,449.4 449.22,448.854L449.22,452.592ZM432.751,435.477C433.276,435.995 433.93,436.254 434.714,436.254C435.485,436.254 436.123,436 436.625,435.488C437.129,434.978 437.382,434.331 437.382,433.547C437.382,432.804 437.119,432.166 436.595,431.635C436.07,431.104 435.442,430.837 434.715,430.837C433.988,430.837 433.346,431.11 432.794,431.656C432.241,432.203 431.966,432.833 431.966,433.547C431.964,434.315 432.225,434.959 432.751,435.477M437.297,438.185L430.619,438.185L430.619,440.81C431.459,440.81 431.997,440.915 432.236,441.125C432.473,441.335 432.592,441.847 432.592,442.658L432.592,456.035C432.592,456.86 432.469,457.381 432.225,457.599C431.98,457.817 431.445,457.925 430.619,457.925L430.619,460.509L439.27,460.509L439.27,457.925C438.443,457.925 437.909,457.82 437.664,457.61C437.419,457.4 437.297,456.876 437.297,456.036L437.297,438.185ZM427.537,430.27L420.879,430.27L420.879,432.895C421.719,432.895 422.257,433 422.496,433.209C422.734,433.421 422.853,433.931 422.853,434.744L422.853,456.037C422.853,456.862 422.73,457.383 422.485,457.601C422.24,457.819 421.705,457.927 420.879,457.927L420.879,460.511L429.53,460.511L429.53,457.927C428.703,457.927 428.166,457.822 427.913,457.612C427.66,457.402 427.537,456.878 427.537,456.038L427.537,430.27ZM413.009,435.477C413.534,435.995 414.189,436.254 414.972,436.254C415.743,436.254 416.38,436 416.884,435.488C417.387,434.978 417.64,434.331 417.64,433.547C417.64,432.804 417.378,432.166 416.853,431.635C416.328,431.104 415.701,430.837 414.973,430.837C414.245,430.837 413.606,431.11 413.052,431.656C412.499,432.203 412.223,432.833 412.223,433.547C412.222,434.315 412.484,434.959 413.009,435.477M417.555,438.185L410.877,438.185L410.877,440.81C411.718,440.81 412.256,440.915 412.494,441.125C412.732,441.335 412.851,441.847 412.851,442.658L412.851,456.035C412.851,456.86 412.728,457.381 412.483,457.599C412.238,457.817 411.703,457.925 410.877,457.925L410.877,460.509L419.528,460.509L419.528,457.925C418.702,457.925 418.168,457.82 417.922,457.61C417.678,457.4 417.554,456.876 417.554,456.036L417.554,438.185L417.555,438.185ZM396.802,438.491C396.052,437.853 395.154,437.535 394.103,437.535C393.124,437.535 392.227,437.811 391.415,438.365C390.603,438.918 389.847,439.761 389.148,440.896L389.148,438.186L382.659,438.186L382.659,440.811C383.498,440.811 384.038,440.916 384.276,441.126C384.513,441.336 384.633,441.848 384.633,442.659L384.633,456.036C384.633,456.861 384.51,457.382 384.265,457.6C384.02,457.818 383.484,457.926 382.659,457.926L382.659,460.51L390.911,460.51L390.911,457.926C390.239,457.912 389.79,457.8 389.567,457.591C389.342,457.379 389.231,456.862 389.231,456.036L389.231,446.397C389.231,444.702 389.469,443.43 389.945,442.575C390.421,441.721 391.134,441.295 392.087,441.295C392.703,441.295 393.166,441.497 393.473,441.902C393.782,442.308 393.934,442.918 393.934,443.729L393.934,456.036C393.934,456.82 393.819,457.327 393.588,457.557C393.357,457.789 392.899,457.912 392.213,457.925L392.213,460.509L400.214,460.509L400.192,457.925C399.506,457.911 399.051,457.796 398.828,457.58C398.604,457.362 398.492,456.848 398.492,456.036L398.492,446.397C398.492,444.702 398.726,443.43 399.195,442.575C399.665,441.721 400.376,441.295 401.327,441.295C401.943,441.295 402.406,441.497 402.713,441.902C403.021,442.308 403.176,442.918 403.176,443.729L403.176,456.036C403.176,456.834 403.07,457.341 402.861,457.557C402.651,457.776 402.203,457.897 401.517,457.925L401.495,460.509L409.747,460.509L409.747,457.925C408.909,457.925 408.363,457.817 408.11,457.599C407.857,457.381 407.731,456.86 407.731,456.035L407.731,444.34C407.731,441.931 407.388,440.196 406.702,439.131C406.015,438.067 404.896,437.535 403.342,437.535C402.335,437.535 401.411,437.833 400.572,438.427C399.731,439.022 398.982,439.915 398.324,441.105C398.059,439.999 397.55,439.126 396.802,438.491M381.522,460.511L381.522,447.788L379.011,447.788C378.938,451.532 378.425,454.04 377.471,455.313C376.518,456.584 374.673,457.221 371.936,457.221L370.472,457.221L370.472,445.028L371.04,445.028C372.291,445.028 373.181,445.381 373.705,446.086C374.229,446.788 374.491,447.989 374.491,449.684L374.491,449.9L376.871,449.9L376.871,436.87L374.491,436.87L374.491,437.109C374.491,438.805 374.234,440 373.716,440.698C373.2,441.392 372.308,441.741 371.041,441.741L370.473,441.741L370.473,430.582L371.499,430.582C374.207,430.582 376.042,431.118 377.002,432.19C377.964,433.262 378.502,435.278 378.619,438.238L381.153,438.238L381.153,427.294L362.786,427.294L362.786,430.583C363.617,430.583 364.203,430.76 364.545,431.11C364.886,431.462 365.057,432.086 365.057,432.983L365.057,454.798C365.057,455.693 364.886,456.322 364.545,456.683C364.203,457.041 363.617,457.222 362.786,457.222L362.786,460.511L381.522,460.511ZM351.226,444.506C351.226,442.996 351.397,441.899 351.74,441.222C352.083,440.541 352.626,440.202 353.368,440.202C354.152,440.202 354.709,440.514 355.037,441.137C355.366,441.76 355.53,442.856 355.53,444.424L355.53,447.09L351.226,447.09L351.226,444.506ZM359.857,449.757L359.857,447.173C359.857,445.466 359.793,444.202 359.669,443.383C359.543,442.564 359.326,441.833 359.017,441.187C358.428,439.998 357.672,439.092 356.75,438.468C355.825,437.847 354.754,437.535 353.537,437.535C351.1,437.535 349.294,438.508 348.119,440.454C346.944,442.4 346.354,445.416 346.354,449.504C346.354,453.732 346.915,456.724 348.034,458.481C349.154,460.238 351.023,461.117 353.641,461.117C355.713,461.117 357.268,460.424 358.303,459.039C359.339,457.653 359.857,455.589 359.857,452.845C359.857,452.76 359.849,452.606 359.836,452.382C359.822,452.158 359.815,451.981 359.815,451.857L356.854,451.857C356.854,454.11 356.64,455.735 356.213,456.728C355.786,457.724 355.097,458.22 354.145,458.22C353.095,458.22 352.345,457.687 351.898,456.624C351.451,455.56 351.227,453.684 351.227,450.995L351.227,449.757L359.857,449.757ZM335.07,446.397C335.07,444.661 335.312,443.376 335.795,442.543C336.276,441.71 337.015,441.295 338.01,441.295C338.583,441.295 339.02,441.497 339.321,441.902C339.622,442.308 339.773,442.918 339.773,443.729L339.773,456.036C339.773,456.848 339.654,457.365 339.416,457.591C339.178,457.813 338.694,457.926 337.968,457.926L337.968,460.51L346.43,460.51L346.43,457.926C345.589,457.926 345.044,457.818 344.792,457.6C344.539,457.382 344.414,456.861 344.414,456.036L344.414,444.34C344.414,441.916 344.063,440.179 343.363,439.121C342.663,438.064 341.521,437.536 339.94,437.536C338.918,437.536 337.993,437.809 337.168,438.355C336.341,438.9 335.572,439.748 334.858,440.896L334.858,438.186L328.411,438.186L328.411,440.811C329.251,440.811 329.791,440.916 330.028,441.126C330.266,441.336 330.385,441.848 330.385,442.659L330.385,456.036C330.385,456.861 330.263,457.382 330.019,457.6C329.772,457.818 329.238,457.926 328.411,457.926L328.411,460.51L336.874,460.51L336.874,457.926C336.118,457.897 335.629,457.78 335.404,457.568C335.181,457.358 335.068,456.848 335.068,456.036L335.068,446.397L335.07,446.397ZM326.705,458.586C327.769,456.872 328.301,453.788 328.301,449.336C328.301,444.884 327.766,441.805 326.695,440.095C325.624,438.388 323.78,437.534 321.162,437.534C318.571,437.534 316.742,438.388 315.671,440.095C314.6,441.805 314.064,444.884 314.064,449.336C314.064,453.817 314.595,456.906 315.661,458.607C316.724,460.309 318.559,461.159 321.163,461.159C323.793,461.159 325.641,460.301 326.705,458.586M319.418,456.707C319.095,455.754 318.935,453.298 318.935,449.336C318.935,445.388 319.095,442.938 319.418,441.985C319.739,441.035 320.335,440.558 321.203,440.558C322.042,440.558 322.621,441.034 322.936,441.985C323.25,442.938 323.408,445.388 323.408,449.336C323.408,453.298 323.253,455.754 322.947,456.707C322.639,457.66 322.057,458.135 321.204,458.135C320.336,458.136 319.74,457.661 319.418,456.707M307.535,435.477C308.06,435.995 308.715,436.254 309.499,436.254C310.268,436.254 310.905,436 311.409,435.488C311.914,434.978 312.165,434.331 312.165,433.547C312.165,432.804 311.903,432.166 311.378,431.635C310.853,431.104 310.225,430.837 309.499,430.837C308.771,430.837 308.13,431.11 307.577,431.656C307.025,432.203 306.747,432.833 306.747,433.547C306.748,434.315 307.011,434.959 307.535,435.477M312.081,438.185L305.404,438.185L305.404,440.81C306.245,440.81 306.783,440.915 307.021,441.125C307.259,441.335 307.378,441.847 307.378,442.658L307.378,456.035C307.378,456.86 307.256,457.381 307.011,457.599C306.765,457.817 306.23,457.925 305.404,457.925L305.404,460.509L314.055,460.509L314.055,457.925C313.231,457.925 312.694,457.82 312.449,457.61C312.204,457.4 312.081,456.876 312.081,456.036L312.081,438.185ZM288.478,454.462C287.974,455.246 287.724,456.126 287.724,457.107C287.724,458.045 287.955,458.85 288.416,459.522C288.877,460.195 289.592,460.769 290.558,461.244C289.466,461.678 288.657,462.168 288.132,462.715C287.608,463.26 287.345,463.875 287.345,464.562C287.345,465.807 288.07,466.812 289.519,467.575C290.968,468.338 292.924,468.72 295.389,468.72C298.369,468.72 300.649,468.146 302.224,467C303.798,465.85 304.586,464.191 304.586,462.021C304.586,461.013 304.403,460.136 304.04,459.386C303.675,458.638 303.137,458.04 302.423,457.592C301.877,457.24 300.365,456.981 297.888,456.814C297.103,456.758 296.502,456.715 296.081,456.688C293.952,456.521 292.588,456.324 291.987,456.1C291.385,455.876 291.084,455.526 291.084,455.051C291.084,454.826 291.175,454.581 291.357,454.314C291.538,454.049 291.833,453.734 292.239,453.37C292.772,453.58 293.287,453.74 293.782,453.853C294.279,453.966 294.752,454.022 295.201,454.022C297.397,454.022 299.06,453.285 300.187,451.817C301.314,450.346 301.878,448.184 301.878,445.328C301.878,443.816 301.65,442.525 301.195,441.453C300.74,440.383 300.065,439.539 299.168,438.923C299.505,438.238 299.879,437.723 300.292,437.381C300.703,437.037 301.142,436.867 301.603,436.867C301.715,436.867 301.877,436.887 302.086,436.929C302.114,436.929 302.142,436.937 302.17,436.95C301.807,437.047 301.53,437.226 301.341,437.484C301.152,437.743 301.057,438.063 301.057,438.44C301.057,438.944 301.208,439.343 301.509,439.637C301.81,439.931 302.219,440.079 302.738,440.079C303.326,440.079 303.795,439.889 304.144,439.511C304.495,439.134 304.669,438.623 304.669,437.979C304.669,437.096 304.382,436.396 303.809,435.878C303.234,435.36 302.471,435.1 301.52,435.1C300.75,435.1 300,435.339 299.272,435.814C298.544,436.292 297.851,436.998 297.194,437.936C296.775,437.796 296.365,437.694 295.965,437.63C295.566,437.568 295.157,437.537 294.736,437.537C292.805,437.537 291.253,438.324 290.085,439.899C288.916,441.475 288.331,443.585 288.331,446.231C288.331,447.673 288.524,448.897 288.91,449.905C289.294,450.913 289.901,451.753 290.727,452.425C289.731,452.997 288.983,453.676 288.478,454.462M299.336,462.419C299.615,462.433 299.784,462.44 299.84,462.44C300.568,462.525 301.06,462.664 301.321,462.86C301.58,463.056 301.709,463.378 301.709,463.827C301.709,464.611 301.229,465.229 300.27,465.685C299.311,466.139 297.998,466.367 296.333,466.367C294.554,466.367 293.19,466.133 292.237,465.664C291.285,465.195 290.81,464.527 290.81,463.659C290.81,463.253 290.904,462.895 291.092,462.589C291.282,462.28 291.565,462.015 291.944,461.79C294.505,462.07 296.969,462.278 299.336,462.419M293.392,450.188C293.057,449.383 292.889,447.922 292.889,445.809C292.889,443.682 293.057,442.208 293.392,441.387C293.729,440.569 294.303,440.158 295.115,440.158C295.912,440.158 296.479,440.569 296.816,441.387C297.151,442.208 297.319,443.682 297.319,445.809C297.319,447.908 297.151,449.364 296.816,450.177C296.479,450.988 295.912,451.394 295.115,451.394C294.303,451.394 293.73,450.992 293.392,450.188M278.423,444.506C278.423,442.996 278.593,441.899 278.937,441.222C279.279,440.541 279.821,440.202 280.563,440.202C281.347,440.202 281.904,440.514 282.233,441.137C282.562,441.76 282.727,442.856 282.727,444.424L282.727,447.09L278.422,447.09L278.422,444.506L278.423,444.506ZM287.053,449.757L287.053,447.173C287.053,445.466 286.991,444.202 286.864,443.383C286.738,442.564 286.521,441.833 286.212,441.187C285.624,439.998 284.868,439.092 283.945,438.468C283.021,437.847 281.95,437.535 280.732,437.535C278.297,437.535 276.49,438.508 275.315,440.454C274.139,442.4 273.551,445.416 273.551,449.504C273.551,453.732 274.111,456.724 275.23,458.481C276.351,460.238 278.219,461.117 280.837,461.117C282.908,461.117 284.463,460.424 285.5,459.039C286.535,457.653 287.053,455.589 287.053,452.845C287.053,452.76 287.047,452.606 287.032,452.382C287.018,452.158 287.011,451.981 287.011,451.857L284.05,451.857C284.05,454.11 283.836,455.735 283.409,456.728C282.982,457.724 282.292,458.22 281.341,458.22C280.29,458.22 279.542,457.687 279.094,456.624C278.645,455.56 278.422,453.684 278.422,450.995L278.422,449.757L287.053,449.757ZM258.698,430.582L260.25,430.582C262.01,430.582 263.212,430.981 263.853,431.78C264.493,432.582 264.813,434.014 264.813,436.078C264.813,438.109 264.456,439.56 263.743,440.434C263.029,441.305 261.835,441.74 260.162,441.74L258.698,441.74L258.698,430.582ZM258.699,445.317C258.816,445.302 258.931,445.288 259.048,445.281C259.164,445.273 259.332,445.269 259.55,445.269C260.963,445.269 261.967,445.653 262.564,446.421C263.161,447.19 263.496,448.572 263.57,450.573C263.584,451.037 263.598,451.716 263.613,452.612C263.671,455.749 263.998,457.909 264.596,459.094C264.989,459.861 265.495,460.42 266.114,460.773C266.731,461.125 267.523,461.301 268.482,461.301C270.069,461.301 271.22,460.78 271.934,459.74C272.646,458.7 273.004,457.004 273.004,454.652L273.004,453.238L271.213,453.238L271.213,455.54C271.213,456.132 271.112,456.609 270.908,456.968C270.704,457.329 270.435,457.509 270.1,457.509C269.429,457.509 269.023,456.238 268.876,453.693C268.848,453.102 268.827,452.661 268.811,452.371C268.622,449.541 268.2,447.572 267.545,446.468C266.89,445.366 265.806,444.636 264.291,444.285C266.127,443.965 267.537,443.081 268.528,441.633C269.518,440.186 270.013,438.286 270.013,435.932C270.013,432.989 269.25,430.815 267.72,429.406C266.192,427.997 263.825,427.293 260.623,427.293L251.012,427.293L251.012,430.582C251.843,430.582 252.428,430.759 252.771,431.109C253.113,431.461 253.284,432.085 253.284,432.982L253.284,454.797C253.284,455.692 253.113,456.321 252.771,456.682C252.428,457.04 251.844,457.221 251.012,457.221L251.012,460.51L261.146,460.51L261.146,457.221L260.972,457.221C260.127,457.221 259.538,457.04 259.202,456.682C258.867,456.321 258.7,455.692 258.7,454.797L258.7,445.317L258.699,445.317Z" style="fill:rgb(0,154,73);fill-rule:nonzero;"/>
        </g>
    </g>
</svg>
