<?xml version="1.0" encoding="UTF-8" standalone="no"?>
<!DOCTYPE svg PUBLIC "-//W3C//DTD SVG 1.1//EN" "http://www.w3.org/Graphics/SVG/1.1/DTD/svg11.dtd">
<svg width="100%" height="100%" viewBox="0 0 182 96" version="1.1" xmlns="http://www.w3.org/2000/svg" xmlns:xlink="http://www.w3.org/1999/xlink" xml:space="preserve" xmlns:serif="http://www.serif.com/" style="fill-rule:evenodd;clip-rule:evenodd;stroke-linejoin:round;stroke-miterlimit:2;">
    <g id="logo-placeholder" transform="matrix(1.01111,0,0,1.02128,0,0)">
        <rect x="0" y="0" width="180" height="94" style="fill:none;"/>
        <rect x="0" y="0" width="180" height="94" style="fill:rgb(235,235,235);"/>
        <g transform="matrix(0.989011,0,0,0.979167,2.27521,4.89739)">
            <path d="M57.074,47.198C56.99,47.198 56.919,47.17 56.863,47.114C56.807,47.058 56.779,46.988 56.779,46.904L56.779,39.099C56.779,39.011 56.807,38.939 56.863,38.883C56.919,38.827 56.99,38.798 57.074,38.798L60.359,38.798C61.005,38.798 61.567,38.899 62.044,39.099C62.522,39.299 62.893,39.601 63.158,40.004C63.423,40.406 63.555,40.911 63.555,41.516C63.555,42.122 63.423,42.622 63.158,43.016C62.893,43.411 62.522,43.704 62.044,43.896C61.567,44.089 61.005,44.185 60.359,44.185L58.747,44.185L58.747,46.904C58.747,46.988 58.718,47.058 58.662,47.114C58.606,47.17 58.534,47.198 58.446,47.198L57.074,47.198ZM58.716,42.696L60.299,42.696C60.704,42.696 61.02,42.596 61.247,42.397C61.474,42.197 61.588,41.9 61.588,41.504C61.588,41.149 61.485,40.859 61.281,40.632C61.076,40.406 60.749,40.293 60.299,40.293L58.716,40.293L58.716,42.696Z" style="fill-opacity:0.6;fill-rule:nonzero;"/>
            <path d="M64.478,47.198C64.394,47.198 64.324,47.17 64.268,47.114C64.211,47.058 64.183,46.988 64.183,46.904L64.183,38.973C64.183,38.889 64.211,38.819 64.268,38.763C64.324,38.707 64.394,38.678 64.478,38.678L65.678,38.678C65.762,38.678 65.833,38.707 65.889,38.763C65.945,38.819 65.973,38.889 65.973,38.973L65.973,46.904C65.973,46.988 65.945,47.058 65.889,47.114C65.833,47.17 65.762,47.198 65.678,47.198L64.478,47.198Z" style="fill-opacity:0.6;fill-rule:nonzero;"/>
            <path d="M68.717,47.318C68.296,47.318 67.917,47.236 67.578,47.072C67.24,46.908 66.972,46.687 66.774,46.409C66.576,46.13 66.477,45.817 66.477,45.469C66.477,44.904 66.706,44.457 67.165,44.127C67.623,43.797 68.229,43.574 68.982,43.457L70.558,43.224L70.558,43.013C70.558,42.7 70.486,42.459 70.341,42.291C70.195,42.123 69.941,42.039 69.578,42.039C69.318,42.039 69.108,42.09 68.948,42.193C68.789,42.295 68.665,42.431 68.577,42.601C68.513,42.704 68.418,42.756 68.294,42.756L67.155,42.756C67.067,42.756 67,42.731 66.954,42.681C66.908,42.631 66.887,42.568 66.891,42.492C66.895,42.36 66.948,42.2 67.051,42.014C67.153,41.827 67.312,41.645 67.527,41.467C67.742,41.288 68.019,41.139 68.358,41.019C68.698,40.899 69.109,40.838 69.591,40.838C70.1,40.838 70.533,40.899 70.89,41.021C71.247,41.143 71.535,41.31 71.754,41.522C71.973,41.735 72.134,41.984 72.237,42.271C72.34,42.558 72.391,42.864 72.391,43.191L72.391,46.904C72.391,46.988 72.363,47.058 72.307,47.114C72.251,47.17 72.181,47.198 72.096,47.198L70.921,47.198C70.837,47.198 70.766,47.17 70.71,47.114C70.654,47.058 70.626,46.988 70.626,46.904L70.626,46.456C70.522,46.609 70.383,46.75 70.209,46.879C70.035,47.009 69.825,47.115 69.58,47.196C69.335,47.278 69.047,47.318 68.717,47.318ZM69.2,46.069C69.461,46.069 69.696,46.014 69.904,45.903C70.111,45.792 70.275,45.62 70.396,45.386C70.517,45.153 70.577,44.86 70.577,44.507L70.577,44.302L69.459,44.488C69.033,44.555 68.719,44.662 68.519,44.808C68.318,44.954 68.218,45.13 68.218,45.335C68.218,45.493 68.264,45.626 68.356,45.734C68.449,45.843 68.57,45.925 68.72,45.983C68.87,46.04 69.03,46.069 69.2,46.069Z" style="fill-opacity:0.6;fill-rule:nonzero;"/>
            <path d="M76.092,47.318C75.507,47.318 74.992,47.21 74.547,46.995C74.101,46.779 73.751,46.465 73.496,46.053C73.241,45.641 73.101,45.145 73.077,44.565C73.069,44.44 73.065,44.28 73.065,44.085C73.065,43.889 73.069,43.727 73.077,43.598C73.101,43.014 73.24,42.516 73.493,42.104C73.746,41.692 74.096,41.378 74.544,41.162C74.991,40.946 75.507,40.838 76.092,40.838C76.622,40.838 77.076,40.913 77.454,41.062C77.832,41.21 78.14,41.397 78.379,41.622C78.618,41.847 78.797,42.08 78.915,42.32C79.033,42.561 79.096,42.774 79.104,42.962C79.112,43.046 79.085,43.116 79.023,43.172C78.961,43.228 78.89,43.256 78.81,43.256L77.529,43.256C77.445,43.256 77.38,43.236 77.336,43.196C77.292,43.156 77.25,43.094 77.21,43.011C77.099,42.731 76.957,42.531 76.784,42.41C76.611,42.29 76.391,42.229 76.122,42.229C75.763,42.229 75.48,42.345 75.274,42.577C75.067,42.808 74.956,43.169 74.94,43.658C74.929,43.971 74.929,44.253 74.94,44.505C74.96,45.002 75.072,45.364 75.277,45.589C75.481,45.815 75.763,45.928 76.122,45.928C76.403,45.928 76.628,45.867 76.797,45.747C76.966,45.626 77.103,45.426 77.21,45.146C77.246,45.063 77.287,45.001 77.333,44.961C77.379,44.92 77.445,44.9 77.529,44.9L78.81,44.9C78.89,44.9 78.961,44.929 79.023,44.985C79.085,45.041 79.112,45.111 79.104,45.195C79.096,45.334 79.057,45.495 78.987,45.677C78.917,45.859 78.808,46.047 78.659,46.239C78.511,46.432 78.32,46.61 78.087,46.772C77.854,46.935 77.572,47.067 77.241,47.167C76.909,47.268 76.526,47.318 76.092,47.318Z" style="fill-opacity:0.6;fill-rule:nonzero;"/>
            <path d="M82.525,47.318C81.609,47.318 80.882,47.062 80.342,46.55C79.802,46.038 79.516,45.294 79.485,44.319C79.481,44.252 79.479,44.166 79.479,44.06C79.479,43.954 79.481,43.87 79.485,43.807C79.512,43.19 79.652,42.659 79.903,42.214C80.153,41.769 80.502,41.429 80.947,41.193C81.393,40.956 81.917,40.838 82.519,40.838C83.193,40.838 83.756,40.976 84.205,41.25C84.654,41.525 84.993,41.901 85.222,42.38C85.45,42.858 85.564,43.405 85.564,44.02L85.564,44.293C85.564,44.377 85.535,44.447 85.477,44.503C85.419,44.559 85.348,44.587 85.264,44.587L81.348,44.587L81.348,44.677C81.356,44.934 81.404,45.17 81.493,45.383C81.581,45.596 81.712,45.767 81.885,45.895C82.059,46.023 82.268,46.087 82.512,46.087C82.705,46.087 82.866,46.058 82.995,45.999C83.125,45.94 83.232,45.871 83.317,45.792C83.402,45.713 83.464,45.648 83.504,45.596C83.576,45.509 83.634,45.455 83.678,45.435C83.722,45.415 83.79,45.405 83.882,45.405L85.138,45.405C85.214,45.405 85.279,45.428 85.331,45.474C85.383,45.52 85.405,45.581 85.397,45.657C85.389,45.79 85.322,45.95 85.198,46.139C85.074,46.328 84.893,46.512 84.654,46.693C84.415,46.873 84.117,47.022 83.76,47.141C83.403,47.259 82.991,47.318 82.525,47.318ZM81.348,43.491L83.701,43.491L83.701,43.462C83.701,43.176 83.654,42.927 83.562,42.714C83.469,42.5 83.334,42.334 83.157,42.216C82.98,42.098 82.767,42.039 82.519,42.039C82.27,42.039 82.059,42.098 81.883,42.216C81.708,42.334 81.575,42.5 81.484,42.714C81.394,42.927 81.348,43.176 81.348,43.462L81.348,43.491Z" style="fill-opacity:0.6;fill-rule:nonzero;"/>
            <path d="M86.594,47.198C86.51,47.198 86.44,47.17 86.384,47.114C86.327,47.058 86.299,46.988 86.299,46.904L86.299,38.973C86.299,38.889 86.327,38.819 86.384,38.763C86.44,38.707 86.51,38.678 86.594,38.678L87.893,38.678C87.977,38.678 88.047,38.707 88.103,38.763C88.159,38.819 88.187,38.889 88.187,38.973L88.187,41.682C88.399,41.426 88.662,41.222 88.977,41.069C89.291,40.915 89.667,40.838 90.105,40.838C90.579,40.838 90.998,40.945 91.362,41.159C91.726,41.372 92.011,41.68 92.215,42.082C92.42,42.484 92.522,42.971 92.522,43.545L92.522,46.904C92.522,46.988 92.494,47.058 92.438,47.114C92.382,47.17 92.312,47.198 92.228,47.198L90.923,47.198C90.839,47.198 90.768,47.17 90.712,47.114C90.656,47.058 90.628,46.988 90.628,46.904L90.628,43.617C90.628,43.194 90.525,42.866 90.32,42.631C90.114,42.396 89.816,42.279 89.425,42.279C89.05,42.279 88.75,42.396 88.525,42.631C88.3,42.866 88.187,43.194 88.187,43.617L88.187,46.904C88.187,46.988 88.159,47.058 88.103,47.114C88.047,47.17 87.977,47.198 87.893,47.198L86.594,47.198Z" style="fill-opacity:0.6;fill-rule:nonzero;"/>
            <path d="M96.241,47.318C95.583,47.318 95.03,47.209 94.583,46.989C94.135,46.77 93.793,46.456 93.557,46.048C93.32,45.64 93.187,45.162 93.159,44.613C93.151,44.46 93.147,44.281 93.147,44.075C93.147,43.87 93.151,43.692 93.159,43.544C93.187,42.987 93.325,42.506 93.572,42.103C93.819,41.699 94.166,41.387 94.614,41.168C95.061,40.948 95.604,40.838 96.241,40.838C96.879,40.838 97.421,40.948 97.869,41.168C98.316,41.387 98.663,41.699 98.91,42.103C99.157,42.506 99.295,42.987 99.323,43.544C99.335,43.692 99.341,43.87 99.341,44.075C99.341,44.281 99.335,44.46 99.323,44.613C99.295,45.162 99.162,45.64 98.926,46.048C98.689,46.456 98.347,46.77 97.899,46.989C97.452,47.209 96.899,47.318 96.241,47.318ZM96.241,45.995C96.633,45.995 96.929,45.873 97.129,45.63C97.33,45.387 97.44,45.028 97.46,44.553C97.468,44.433 97.472,44.275 97.472,44.078C97.472,43.882 97.468,43.724 97.46,43.604C97.44,43.133 97.33,42.775 97.129,42.53C96.929,42.284 96.633,42.162 96.241,42.162C95.853,42.162 95.558,42.284 95.356,42.53C95.154,42.775 95.042,43.133 95.023,43.604C95.015,43.724 95.011,43.882 95.011,44.078C95.011,44.275 95.015,44.433 95.023,44.553C95.042,45.028 95.154,45.387 95.356,45.63C95.558,45.873 95.853,45.995 96.241,45.995Z" style="fill-opacity:0.6;fill-rule:nonzero;"/>
            <path d="M100.382,47.198C100.298,47.198 100.228,47.17 100.172,47.114C100.115,47.058 100.087,46.988 100.087,46.904L100.087,38.973C100.087,38.889 100.115,38.819 100.172,38.763C100.228,38.707 100.298,38.678 100.382,38.678L101.582,38.678C101.666,38.678 101.737,38.707 101.793,38.763C101.849,38.819 101.877,38.889 101.877,38.973L101.877,46.904C101.877,46.988 101.849,47.058 101.793,47.114C101.737,47.17 101.666,47.198 101.582,47.198L100.382,47.198Z" style="fill-opacity:0.6;fill-rule:nonzero;"/>
            <path d="M105.105,47.318C104.703,47.318 104.345,47.252 104.034,47.119C103.722,46.986 103.459,46.794 103.245,46.545C103.03,46.296 102.866,45.997 102.751,45.649C102.637,45.301 102.569,44.912 102.549,44.482C102.541,44.329 102.537,44.193 102.537,44.072C102.537,43.952 102.541,43.817 102.549,43.669C102.565,43.255 102.631,42.875 102.745,42.529C102.86,42.183 103.024,41.885 103.238,41.633C103.453,41.382 103.717,41.187 104.031,41.047C104.344,40.908 104.703,40.838 105.105,40.838C105.519,40.838 105.874,40.909 106.169,41.05C106.464,41.191 106.71,41.371 106.906,41.59L106.906,38.973C106.906,38.889 106.934,38.819 106.99,38.763C107.046,38.707 107.116,38.678 107.201,38.678L108.438,38.678C108.522,38.678 108.592,38.707 108.648,38.763C108.704,38.819 108.732,38.889 108.732,38.973L108.732,46.904C108.732,46.988 108.704,47.058 108.648,47.114C108.592,47.17 108.522,47.198 108.438,47.198L107.293,47.198C107.209,47.198 107.138,47.17 107.082,47.114C107.026,47.058 106.998,46.988 106.998,46.904L106.998,46.487C106.802,46.731 106.551,46.93 106.246,47.085C105.94,47.241 105.56,47.318 105.105,47.318ZM105.651,45.878C105.951,45.878 106.191,45.811 106.37,45.677C106.55,45.543 106.682,45.371 106.767,45.159C106.851,44.948 106.898,44.726 106.906,44.492C106.918,44.339 106.924,44.186 106.924,44.033C106.924,43.88 106.918,43.729 106.906,43.581C106.898,43.359 106.848,43.15 106.758,42.952C106.667,42.755 106.532,42.594 106.352,42.468C106.172,42.342 105.939,42.279 105.651,42.279C105.351,42.279 105.112,42.344 104.934,42.474C104.757,42.604 104.629,42.777 104.552,42.994C104.475,43.212 104.429,43.451 104.413,43.712C104.397,43.956 104.397,44.201 104.413,44.445C104.429,44.706 104.475,44.945 104.552,45.162C104.629,45.379 104.757,45.553 104.934,45.683C105.112,45.813 105.351,45.878 105.651,45.878Z" style="fill-opacity:0.6;fill-rule:nonzero;"/>
            <path d="M112.525,47.318C111.609,47.318 110.882,47.062 110.342,46.55C109.802,46.038 109.516,45.294 109.485,44.319C109.481,44.252 109.479,44.166 109.479,44.06C109.479,43.954 109.481,43.87 109.485,43.807C109.512,43.19 109.652,42.659 109.903,42.214C110.153,41.769 110.502,41.429 110.947,41.193C111.393,40.956 111.917,40.838 112.519,40.838C113.193,40.838 113.756,40.976 114.205,41.25C114.654,41.525 114.993,41.901 115.222,42.38C115.45,42.858 115.564,43.405 115.564,44.02L115.564,44.293C115.564,44.377 115.535,44.447 115.477,44.503C115.419,44.559 115.348,44.587 115.264,44.587L111.348,44.587L111.348,44.677C111.356,44.934 111.404,45.17 111.493,45.383C111.581,45.596 111.712,45.767 111.885,45.895C112.059,46.023 112.268,46.087 112.512,46.087C112.705,46.087 112.866,46.058 112.995,45.999C113.125,45.94 113.232,45.871 113.317,45.792C113.402,45.713 113.464,45.648 113.504,45.596C113.576,45.509 113.634,45.455 113.678,45.435C113.722,45.415 113.79,45.405 113.882,45.405L115.138,45.405C115.214,45.405 115.279,45.428 115.331,45.474C115.383,45.52 115.405,45.581 115.397,45.657C115.389,45.79 115.322,45.95 115.198,46.139C115.074,46.328 114.893,46.512 114.654,46.693C114.415,46.873 114.117,47.022 113.76,47.141C113.403,47.259 112.991,47.318 112.525,47.318ZM111.348,43.491L113.701,43.491L113.701,43.462C113.701,43.176 113.654,42.927 113.562,42.714C113.469,42.5 113.334,42.334 113.157,42.216C112.98,42.098 112.767,42.039 112.519,42.039C112.27,42.039 112.059,42.098 111.883,42.216C111.708,42.334 111.575,42.5 111.484,42.714C111.394,42.927 111.348,43.176 111.348,43.462L111.348,43.491Z" style="fill-opacity:0.6;fill-rule:nonzero;"/>
            <path d="M116.588,47.198C116.504,47.198 116.434,47.17 116.378,47.114C116.321,47.058 116.293,46.988 116.293,46.904L116.293,41.259C116.293,41.175 116.321,41.104 116.378,41.046C116.434,40.987 116.504,40.958 116.588,40.958L117.758,40.958C117.842,40.958 117.913,40.987 117.971,41.046C118.03,41.104 118.059,41.175 118.059,41.259L118.059,41.743C118.26,41.492 118.508,41.298 118.803,41.162C119.097,41.026 119.434,40.958 119.814,40.958L120.325,40.958C120.409,40.958 120.479,40.987 120.536,41.043C120.592,41.099 120.62,41.169 120.62,41.253L120.62,42.295C120.62,42.379 120.592,42.449 120.536,42.505C120.479,42.561 120.409,42.589 120.325,42.589L119.28,42.589C118.923,42.589 118.646,42.688 118.448,42.886C118.25,43.084 118.151,43.362 118.151,43.719L118.151,46.904C118.151,46.988 118.122,47.058 118.064,47.114C118.005,47.17 117.934,47.198 117.85,47.198L116.588,47.198Z" style="fill-opacity:0.6;fill-rule:nonzero;"/>
        </g>
    </g>
</svg>
